<svg aria-hidden="true" style="position:absolute;width:0;height:0" xmlns="http://www.w3.org/2000/svg" overflow="hidden"><defs><symbol id="icon-envelope" viewBox="0 0 32 32"><path d="M29 5H3C1.346 5 0 6.217 0 7.713v16.28c0 1.496 1.346 2.713 3 2.713h26c1.654 0 3-1.217 3-2.713V7.713C32 6.217 30.654 5 29 5zm0 1.809c.136 0 .265.026.383.07L16 17.37 2.617 6.879c.118-.044.247-.07.383-.07h26zm0 18.088H3c-.552 0-1-.405-1-.904V8.79l13.345 10.46c.188.147.422.221.655.221s.467-.073.655-.221L30 8.79v15.203c0 .499-.448.904-1 .904z"/></symbol><symbol id="icon-smartphone" viewBox="0 0 32 32"><path  d="M23.467 0H8.534c-1.764 0-3.2 1.34-3.2 2.987v25.89c0 1.647 1.436 2.987 3.2 2.987h14.933c1.764 0 3.2-1.34 3.2-2.987V2.987c0-1.647-1.436-2.987-3.2-2.987zM8.533 1.993h14.933c.589 0 1.067.446 1.067.994v20.911H7.466V2.987c0-.548.478-.994 1.067-.994zm14.934 27.88H8.534c-.589 0-1.067-.448-1.067-.996V25.89h17.067v2.987c0 .548-.478.994-1.067.994z"/><path fill="var(--color2, #757575)" d="M10.355 27.177a.947.947 0 010 1.407l-.001.001c-.198.182-.464.293-.755.293s-.557-.111-.756-.294l.001.001a.947.947 0 010-1.407l.001-.001c.198-.182.464-.293.755-.293s.557.111.756.294l-.001-.001z"/></symbol><symbol id="icon-computer" viewBox="0 0 32 32"><path fill="var(--color1, #2196f3)" d="M14.926 14.965h1.066v4.798h-1.066v-4.797zM19.19 17.097h1.066v2.665H19.19v-2.665zM10.661 18.696h1.066v1.066h-1.066v-1.066zM7.463 18.163h1.066v1.599H7.463v-1.599z"/><path fill="var(--color3, #212121)" d="M1.599 28.291h25.587a1.6 1.6 0 001.599-1.599V24.56a1.6 1.6 0 00-1.599-1.599h-.533V9.668L29.681 6.8a1.608 1.608 0 10-.746-.763L26.654 8.2V6.97a1.6 1.6 0 00-1.599-1.599H3.733A1.6 1.6 0 002.134 6.97v15.992h-.533a1.6 1.6 0 00-1.599 1.599v2.132a1.6 1.6 0 001.599 1.599zM30.384 4.837a.533.533 0 110 1.067.533.533 0 010-1.067zM3.198 6.969c0-.294.239-.533.533-.533h21.322c.294 0 .533.239.533.533v2.239l-1.066 1.013V8.035a.533.533 0 00-.533-.533H4.797a.533.533 0 00-.533.533v13.326c0 .294.239.533.533.533h19.19a.533.533 0 00.533-.533v-9.674l1.066-1.01v12.284H3.198V6.969zm4.798 6.93a1.598 1.598 0 101.107 2.749l1.853.93a.532.532 0 00.636-.123l3.939-4.431 3.872 2.901a.533.533 0 00.686-.039l3.365-3.188v8.131H5.33V8.569h18.124v2.66l-3.771 3.572-3.904-2.927a.533.533 0 00-.718.072l-3.993 4.493-1.493-.746c.011-.064.018-.129.02-.193a1.6 1.6 0 00-1.599-1.599zm.533 1.599a.533.533 0 11-1.067 0 .533.533 0 011.067 0zm3.198 8.528h5.331v.533a.533.533 0 01-.533.533h-4.264a.533.533 0 01-.533-.533v-.533zm-10.661.534c0-.294.239-.533.533-.533h9.062v.533a1.6 1.6 0 001.599 1.599h4.264a1.6 1.6 0 001.599-1.599v-.533h9.062c.294 0 .533.239.533.533v2.132a.533.533 0 01-.533.533H1.598a.533.533 0 01-.533-.533V24.56z"/></symbol><symbol id="icon-antenna" viewBox="0 0 32 32"><path d="M30.773 22.098l-8.443-8.505.937-4.615c.242.094.499.144.758.146h.006a2.159 2.159 0 10-2.008-1.435l-4.96.605L8.972.161a.534.534 0 00-.377-.16.532.532 0 00-.373.155L6.709 1.66a.534.534 0 000 .754l.814.826a14.943 14.943 0 002.519 17.663.513.513 0 00.146.098c-.034.18-.051.364-.052.547v6.187h-6.4a2.67 2.67 0 00-2.667 2.667v1.067c0 .295.239.533.533.533h24.533a.533.533 0 00.533-.533v-1.067a2.67 2.67 0 00-2.667-2.667h-6.4v-2.742a15.09 15.09 0 003.049.32 14.854 14.854 0 007.04-1.783l.818.823a.534.534 0 00.377.16.532.532 0 00.373-.155l1.513-1.504a.534.534 0 000-.754zM23.28 6.233a1.066 1.066 0 11.752 1.822h-.003a1.067 1.067 0 01-.747-1.823h-.002zm-1.256 3.505l-.598 2.946-1.175-1.182 1.774-1.763zm-.605-.902l-1.92 1.909-1.485-1.493 3.405-.415zM24.004 28.8a1.6 1.6 0 011.6 1.6v.533H2.137V30.4a1.6 1.6 0 011.6-1.6h20.267zm-7.467-2.133v1.067h-5.333v-1.067h5.333zM11.204 25.6v-4.053c0-1.294 1.196-2.347 2.667-2.347s2.667 1.053 2.667 2.347V25.6h-5.333zm6.4-1.696v-2.357c0-1.882-1.675-3.413-3.733-3.413a3.8 3.8 0 00-3.281 1.786A13.87 13.87 0 018.311 4.033l18.602 18.708a13.818 13.818 0 01-9.309 1.163zm11.289-.684L7.836 2.039l.755-.752 7.935 7.98c.004 0 .006.007.01.01l13.115 13.191-.757.752z"/><path d="M13.876 20.267h-.005a1.6 1.6 0 10-.004 3.2h.005a1.6 1.6 0 10.004-3.2zm.373 1.978a.534.534 0 01-.752-.756.534.534 0 01.373-.155.532.532 0 01.373.911h.005z"/></symbol><symbol id="icon-astronaut" viewBox="0 0 32 32"><path fill="var(--color1, #2196f3)" d="M31.974 4.524a.534.534 0 00-.43-.363l-1.91-.278-.855-1.731c-.179-.365-.777-.365-.956 0l-.855 1.731-1.91.278a.535.535 0 00-.296.91l1.383 1.348-.326 1.903c-.034.2.048.402.212.522a.53.53 0 00.562.04l1.709-.899 1.709.899a.536.536 0 00.775-.563l-.326-1.903 1.383-1.348a.536.536 0 00.135-.547zm-2.463 1.327a.534.534 0 00-.153.472l.191 1.114-1-.526a.533.533 0 00-.498 0l-1.001.526.191-1.114a.534.534 0 00-.153-.472l-.81-.789 1.119-.163a.532.532 0 00.402-.292l.5-1.013.5 1.013a.535.535 0 00.402.292l1.119.163-.809.789zM26.133 20.522h-1.067v1.067h1.067v-1.067zM26.133 22.656h-1.067v1.067h1.067v-1.067zM27.2 21.589h-1.067v1.067H27.2v-1.067zM25.067 21.589H24v1.067h1.067v-1.067zM22.4 26.389h-1.067v1.067H22.4v-1.067zM22.4 28.522h-1.067v1.067H22.4v-1.067zM23.467 27.456H22.4v1.067h1.067v-1.067zM21.333 27.456h-1.067v1.067h1.067v-1.067zM16 24.256h-1.067v1.067H16v-1.067zM16 26.389h-1.067v1.067H16v-1.067zM17.067 25.322H16v1.067h1.067v-1.067zM14.933 25.322h-1.067v1.067h1.067v-1.067zM5.866 6.122H4.799v1.067h1.067V6.122zM5.866 8.255H4.799v1.067h1.067V8.255z"/><path fill="var(--color1, #2196f3)" d="M6.933 7.189H5.866v1.067h1.067V7.189zM4.8 7.189H3.733v1.067H4.8V7.189z"/><path fill="var(--color3, #212121)" d="M24.715 14.159a1.775 1.775 0 00-1.188-.705 1.778 1.778 0 00-1.34.352l-1.252.96-1.898 1.417-1.358-.541c2.421-1.086 4.114-3.508 4.114-6.32 0-3.823-3.123-6.933-6.961-6.933s-6.961 3.11-6.961 6.933a6.86 6.86 0 001.12 3.758l-2.764-.024h-.005c-.009 0-.015.004-.023.005a.515.515 0 00-.155.031l-.038.013c-.006.003-.013.003-.019.006l-3.233 1.596-.001.001-1.893.911a.397.397 0 00-.063.035 1.779 1.779 0 00-.598 2.295c.22.429.595.745 1.056.889a1.776 1.776 0 001.378-.128l1.388-.738 2.264-1.169 1.357-.008L2.2 22.211l-.002.001-1.339 1.333c-.316.315-.49.732-.49 1.178s.174.863.49 1.179c.325.323.752.485 1.179.485s.854-.162 1.18-.485l1.314-1.309 1.741-1.3.901.897-1.762 1.754-.002.001-1.339 1.333c-.316.315-.49.732-.49 1.178s.174.863.49 1.179c.325.323.753.485 1.18.485s.855-.162 1.18-.485l3.482-3.467.001-.002 1.01-1-.004-.004c.006-.006.015-.009.022-.015l5.166-5.658 3.471.494a.52.52 0 00.262-.033c.018-.006.033-.015.05-.023.019-.01.039-.015.058-.027l3.213-2.133c.012-.008.018-.021.029-.029.013-.01.029-.014.041-.026l1.271-1.191c.662-.62.753-1.635.212-2.362zM2.13 17.77a.714.714 0 01-.558.052.717.717 0 01-.213-1.26l1.314-.632.449 1.313-.992.527zm3.498-1.828l-1.548.8-.439-1.283 2.027-1.001-.04 1.484zm15.099-6.62a5.79 5.79 0 01-.599 2.559l-4.181-1.899a1.863 1.863 0 00-.788-1.388l1.464-4.86c2.378.756 4.105 2.974 4.105 5.588zm-11.789 0c0-3.235 2.644-5.867 5.894-5.867.253 0 .5.021.745.052l-1.432 4.754c-.019-.001-.037-.006-.057-.006-1.033 0-1.873.837-1.873 1.867s.84 1.867 1.873 1.867c.694 0 1.294-.383 1.618-.945l3.862 1.755a5.894 5.894 0 01-4.737 2.39c-3.25 0-5.894-2.632-5.894-5.867zm5.956.8c0 .441-.362.8-.806.8s-.806-.359-.806-.8c0-.441.362-.8.806-.8s.806.359.806.8zM2.465 25.146a.608.608 0 01-.854.001.592.592 0 010-.844l.962-.959.851.848-.959.955zm3.214 3.734a.608.608 0 01-.855.001.592.592 0 010-.844l.963-.959.852.848-.96.955zm3.481-3.469l-.002.001-1.765 1.76-.852-.848 1.763-1.755.002-.001c.04-.04.065-.088.09-.135.007-.014.02-.026.026-.04.017-.041.019-.085.026-.129.003-.025.014-.047.014-.073 0-.036-.013-.07-.02-.106-.006-.032-.006-.065-.019-.095a.55.55 0 00-.091-.138c-.01-.012-.014-.027-.025-.038h-.001l-.001-.002-1.607-1.6c-.017-.017-.039-.024-.058-.038a.507.507 0 00-.087-.058.515.515 0 00-.093-.033.507.507 0 00-.103-.02.5.5 0 00-.095.005.53.53 0 00-.104.02.477.477 0 00-.094.045c-.02.011-.042.015-.061.029L4.23 23.486l-.901-.897 2.399-2.386 4.361 4.289-.928.919zm6.819-7.017c-.015-.002-.03.004-.045.003a.556.556 0 00-.3.075.492.492 0 00-.083.061c-.013.011-.028.017-.04.029l-4.698 5.146-4.328-4.257 2.833-2.818a.534.534 0 00-.379-.911v-.001l-2.219.013.028-1.607 3.104.027a6.947 6.947 0 004.981 2.101c.437 0 .864-.045 1.279-.123.04.032.079.065.13.085l2.41.96.152.758.178.885-3.003-.427zm4.041.178l-.313-1.558 1.446-1.08.947 1.257-2.08 1.381zm3.754-2.831l-.838.785-.931-1.236.831-.637a.735.735 0 01.543-.143.718.718 0 01.48.284.713.713 0 01-.085.947z"/><path fill="var(--color3, #212121)" d="M13.602 18.544l-2.143-2.133a.534.534 0 00-.753 0l-2.142 2.133a.537.537 0 000 .756l2.142 2.133a.536.536 0 00.753 0l2.143-2.133a.535.535 0 000-.756zm-2.519 1.759l-1.387-1.381 1.387-1.381 1.387 1.381-1.387 1.381zM17.164 5.071l-.258 1.036c.071.018 1.738.452 1.738 2.149h1.067c0-2.017-1.666-2.965-2.547-3.185zM19.711 9.322h-1.067v1.067h1.067V9.322z"/></symbol><symbol id="icon-clock" viewBox="0 0 32 32"><path fill="var(--color3, #212121)" d="M31.297 15.301C31.295 6.849 24.442-.002 15.989 0S.686 6.855.688 15.308a15.304 15.304 0 0010.649 14.576.662.662 0 00.529-.065.637.637 0 00.283-.356l3.865-12.25a1.912 1.912 0 10-.84-3.635l-5.106-5.107a.637.637 0 00-.902.902l5.103 5.109a1.876 1.876 0 00.536 2.309l-3.683 11.673C3.844 25.783.118 17.71 2.799 10.432S13.553-.572 20.831 2.109s11.004 10.754 8.323 18.032a14.042 14.042 0 01-7.462 7.973l-.398-1.874a.638.638 0 00-1.048-.344l-3.837 3.426a.637.637 0 00.231 1.084l4.899 1.563a.638.638 0 00.819-.74l-.391-1.839a15.255 15.255 0 009.329-14.089zm-15.305-.637a.638.638 0 110 1.277.638.638 0 010-1.277zm2.101 14.864l2.184-1.948.603 2.84-2.787-.892z"/><path fill="var(--color1, #2196f3)" d="M15.354 3.185V4.46a.638.638 0 101.276 0V3.185a.638.638 0 00-1.276 0zM3.876 14.664a.638.638 0 000 1.276h1.275a.638.638 0 100-1.276H3.876zM28.108 15.939a.638.638 0 100-1.276h-1.275a.638.638 0 000 1.276h1.275z"/></symbol><symbol id="icon-company_logo_1" viewBox="0 0 32 32"><path  d="M5 0l4.872 4.468h13.59v12.465l4.872 4.468V0H5.001z"/><path  d="M1 4.28v20.79h22.667v-8.264L10.016 4.285 1.001 4.28zm18.349 17.749H4.587V8.047H5.63v13.035h13.719v.947zM7.527 28.991l.545-1.123h.456l-.794 1.497v.872h-.413v-.872l-.796-1.497h.457l.545 1.123zm2.341.695H8.95l-.192.552H8.33l.895-2.37h.369l.897 2.37h-.43l-.194-.552zm-.803-.332h.687l-.343-.983-.343.983zm2.426.244c0-.11.03-.21.09-.301.06-.092.177-.201.353-.327a1.538 1.538 0 01-.194-.296.58.58 0 01-.054-.236c0-.186.056-.332.169-.439a.629.629 0 01.456-.163c.173 0 .314.051.423.153a.487.487 0 01.166.376.52.52 0 01-.075.273.894.894 0 01-.246.247l-.161.117.457.54a.947.947 0 00.099-.435h.343c0 .292-.068.531-.205.718l.348.412h-.459l-.133-.158c-.169.127-.371.19-.605.19s-.422-.062-.563-.186a.622.622 0 01-.21-.487zm.784.356a.603.603 0 00.374-.133l-.518-.61-.05.036c-.13.099-.195.212-.195.339 0 .11.035.199.106.267s.165.103.283.103zm-.218-1.526c0 .091.056.206.168.343l.181-.124.05-.041a.294.294 0 00.101-.23.207.207 0 00-.07-.158.25.25 0 00-.177-.067c-.077 0-.138.026-.184.078s-.068.118-.068.197zm4.305 1.038c-.024.253-.117.45-.28.592-.163.141-.379.212-.649.212a.943.943 0 01-.5-.133c-.143-.09-.254-.218-.332-.383s-.119-.356-.122-.575v-.221c0-.224.04-.42.119-.591s.193-.302.34-.394a.957.957 0 01.514-.138c.262 0 .472.071.632.213s.252.343.278.602h-.41c-.02-.17-.069-.293-.15-.368-.079-.076-.196-.114-.35-.114a.482.482 0 00-.413.197c-.095.13-.144.322-.146.575v.21c0 .256.046.451.137.586s.227.202.404.202c.162 0 .283-.036.365-.109s.133-.194.155-.363h.41zm2.261-.351c0 .232-.04.436-.12.612a.914.914 0 01-.345.404.95.95 0 01-.514.14.957.957 0 01-.514-.14.927.927 0 01-.348-.402 1.424 1.424 0 01-.124-.601v-.133c0-.231.041-.435.122-.612a.918.918 0 01.347-.405c.15-.094.321-.142.514-.142s.364.047.513.14c.15.092.265.226.347.4.081.174.123.376.124.607v.132zm-.412-.124c0-.263-.05-.464-.15-.604a.485.485 0 00-.422-.21.487.487 0 00-.418.21c-.1.139-.151.336-.153.591v.137c0 .26.05.462.151.604a.492.492 0 00.423.213.483.483 0 00.42-.208c.099-.139.148-.342.148-.609v-.124z"/></symbol><symbol id="icon-company_logo_2" viewBox="0 0 32 32"><path  d="M14.14 1.806h.084c.156 0 .324.016.49.03.734.052 1.463.162 2.179.329V.403a12.97 12.97 0 00-2.25-.358 18.11 18.11 0 00-.909-.044h-.263a18.35 18.35 0 00-4.515.582 18.3 18.3 0 00-4.79 1.948v17.475a19.484 19.484 0 014.566-1.779 19.948 19.948 0 013.833-.588h.051c.216-.011.433-.017.655-.019v-1.79a21.155 21.155 0 00-4.982.662 23.81 23.81 0 00-1.731.513l-.623.211V3.591l.266-.128a17.409 17.409 0 016.471-1.651.523.523 0 01.056 0c.248-.013.497-.019.741-.019h.28c.129.003.258.006.388.014z"/><path  d="M18.53 3.651a15.823 15.823 0 01-2.606-.211c-.277-.047-.55-.103-.814-.164v17.275a13.82 13.82 0 003.425.404 18.396 18.396 0 004.515-.581 18.362 18.362 0 004.792-1.948V1.263a19.58 19.58 0 01-4.564 1.781 19.388 19.388 0 01-4.747.609zm6.907.299l.623-.21v13.63l-.266.128a17.055 17.055 0 01-3.184 1.144c-1.331.344-2.7.522-4.074.527-.411 0-.819-.017-1.214-.052l-.427-.038V5.062l.497.033c.361.023.735.034 1.141.034a21.092 21.092 0 005.173-.663 26.802 26.802 0 001.731-.518zM5.377 25.977a.912.912 0 00-.693-.28 1.034 1.034 0 00-.4.075.91.91 0 00-.512.518 1.023 1.023 0 00-.072.387v2.335c-.006.165.026.328.092.479.055.12.135.226.234.313a.815.815 0 00.321.166c.114.032.231.048.349.049a.972.972 0 00.892-.61.951.951 0 00.075-.372v-.261h-.61v.208a.528.528 0 01-.036.208.359.359 0 01-.089.131.365.365 0 01-.128.067.425.425 0 01-.128.022.314.314 0 01-.286-.125.548.548 0 01-.081-.313v-2.177a.738.738 0 01.075-.349.312.312 0 01.299-.14.33.33 0 01.272.131c.068.09.104.2.101.313v.202h.604v-.238a1.093 1.093 0 00-.279-.737zM9.002 25.95a1.091 1.091 0 00-.694-.257 1.075 1.075 0 00-.364.066.965.965 0 00-.559.518 1.099 1.099 0 00-.089.452v2.239a1.08 1.08 0 00.089.459c.055.12.136.227.237.313a.94.94 0 00.322.197 1.028 1.028 0 00.728 0c.121-.044.233-.111.33-.197a.948.948 0 00.23-.313c.063-.144.093-.301.089-.459v-2.239a1.08 1.08 0 00-.089-.452 1.015 1.015 0 00-.23-.327zm-.284 3.019a.405.405 0 01-.121.324.445.445 0 01-.574 0 .397.397 0 01-.121-.324V26.73a.405.405 0 01.121-.324.445.445 0 01.574 0 .397.397 0 01.121.324v2.239zM13.764 29.969V25.73h-.587l-.771 2.244h-.011l-.777-2.244h-.581v4.239h.606V27.39h.011l.593 1.823h.302l.598-1.823h.011v2.579h.606zM17.205 26.027a.844.844 0 00-.342-.232 1.363 1.363 0 00-.439-.066h-.9v4.239h.604v-1.656h.311c.189.009.376-.031.545-.116a.882.882 0 00.332-.324 1.02 1.02 0 00.139-.369c.024-.16.035-.321.033-.482a2.421 2.421 0 00-.059-.606.898.898 0 00-.223-.39zm-.311 1.293a.547.547 0 01-.056.221.346.346 0 01-.156.149.619.619 0 01-.285.053h-.276v-1.441h.311a.578.578 0 01.272.053.352.352 0 01.142.156.624.624 0 01.053.236v.282c0 .099.006.2 0 .291h-.006zM20.066 25.73h-.495l-.934 4.239h.604l.177-.911h.823l.177.911h.604l-.957-4.239zm-.557 2.751l.297-1.537h.011l.296 1.537h-.604zM23.969 28.283h-.011l-.912-2.554h-.581v4.239h.604v-2.549h.012l.923 2.549h.568v-4.239h-.604v2.554zM27.66 25.73l-.486 1.685h-.012l-.486-1.685h-.64l.83 2.447v1.792h.604v-1.792l.83-2.447h-.64zM3.692 31.166h.291v.817h.198v-.817h.29v-.167h-.778v.167zM6.14 30.999l-.381.984h.21l.081-.224h.392l.084.224h.215l-.391-.984h-.21zm-.032.594l.134-.365.134.365h-.268zM8.559 31.62h.227v.127a.38.38 0 01-.233.083.244.244 0 01-.209-.093.411.411 0 01-.073-.257c0-.219.095-.329.283-.329a.206.206 0 01.222.157l.195-.038c-.042-.192-.181-.289-.417-.289a.495.495 0 00-.344.127.494.494 0 00-.141.379.532.532 0 00.126.369.477.477 0 00.374.144.59.59 0 00.417-.157v-.388h-.427v.166zM11.029 30.999h-.199v.984h.69v-.167h-.49v-.817zM13.118 30.999h-.199v.984h.199v-.984zM15.161 31.656l-.403-.657h-.193v.984h.185v-.643l.395.643h.198v-.984h-.182v.657zM17.007 31.549h.49v-.167h-.49v-.216h.528v-.167h-.727v.984h.747v-.167h-.548v-.266zM21.484 31.387h-.388v-.388h-.198v.984h.198v-.43h.388v.43h.198v-.984h-.198v.388zM23.342 31.549h.492v-.167h-.492v-.216h.529v-.167h-.727v.984h.746v-.167h-.548v-.266zM25.86 31.549c.171-.027.258-.117.258-.274a.236.236 0 00-.096-.219.553.553 0 00-.288-.058h-.417v.984h.198v-.412h.039a.261.261 0 01.123.022.21.21 0 01.07.072l.215.313h.237l-.12-.192a.685.685 0 00-.218-.236zm-.199-.136h-.146v-.247h.156a.526.526 0 01.201.023c.014.013.026.029.033.046a.133.133 0 01-.005.111.128.128 0 01-.037.043.547.547 0 01-.201.023zM27.76 31.549h.49v-.167h-.49v-.216h.529v-.167h-.729v.984h.747v-.167h-.548v-.266z"/></symbol><symbol id="icon-company_logo_3" viewBox="0 0 32 32"><path  d="M5.466 31.103a.088.088 0 01.059.025l.153.161c-.119.13-.266.234-.431.305a1.532 1.532 0 01-.611.109 1.496 1.496 0 01-.574-.102 1.25 1.25 0 01-.712-.733 1.618 1.618 0 01-.098-.571c-.003-.195.033-.39.105-.573.067-.166.168-.317.297-.445.131-.126.287-.224.459-.29.189-.07.389-.104.591-.102.188-.004.375.027.549.093.152.063.291.15.412.257l-.128.171a.122.122 0 01-.033.031.084.084 0 01-.052.013.123.123 0 01-.056-.018l-.069-.046-.096-.058a.978.978 0 00-.302-.103 1.238 1.238 0 00-.228-.018 1.12 1.12 0 00-.425.077.96.96 0 00-.333.215.997.997 0 00-.216.343c-.054.145-.08.298-.078.452-.002.156.024.312.078.46.047.126.119.242.212.341a.863.863 0 00.318.212c.125.049.259.074.394.073.078.001.156-.004.234-.015a.87.87 0 00.354-.122c.054-.034.104-.072.151-.113a.115.115 0 01.073-.029zM9.888 30.296c.002.194-.033.386-.103.567-.062.165-.161.315-.288.44s-.282.224-.452.289a1.711 1.711 0 01-1.164 0 1.281 1.281 0 01-.741-.735 1.61 1.61 0 010-1.136c.065-.166.164-.317.291-.447.128-.121.281-.216.45-.279.374-.139.79-.139 1.164 0 .17.066.324.165.452.29.126.127.224.276.289.44.071.183.106.376.103.571zm-.402 0a1.313 1.313 0 00-.073-.456.898.898 0 00-.528-.556 1.23 1.23 0 00-.846 0 .901.901 0 00-.531.556 1.465 1.465 0 000 .912.888.888 0 00.531.554c.273.097.573.097.846 0a.884.884 0 00.528-.554c.051-.147.076-.301.073-.456zM12.905 30.774l.04.102a3.46 3.46 0 01.044-.102.933.933 0 01.05-.1l.978-1.694c.019-.029.036-.047.056-.053a.217.217 0 01.08-.009h.289v2.755h-.343v-2.026-.086a.753.753 0 010-.095l-.984 1.718c-.012.026-.033.047-.058.063s-.054.023-.084.023h-.056a.154.154 0 01-.141-.086l-1.013-1.729V31.668h-.331v-2.75h.289a.24.24 0 01.08.009c.024.011.043.03.054.053l.999 1.696c.02.031.036.064.05.098zM16.586 30.638v1.032h-.383v-2.752h.854a1.67 1.67 0 01.477.06.912.912 0 01.337.171.699.699 0 01.191.27.905.905 0 01.065.352.84.84 0 01-.071.352.744.744 0 01-.207.275.936.936 0 01-.339.182 1.498 1.498 0 01-.461.064l-.463-.007zm0-.296h.463a.992.992 0 00.297-.042.617.617 0 00.214-.119.488.488 0 00.13-.182.579.579 0 00.046-.232.522.522 0 00-.172-.412.766.766 0 00-.515-.148h-.463v1.134zM21.731 31.673h-.302a.133.133 0 01-.084-.026.164.164 0 01-.05-.064l-.26-.666h-1.307l-.27.666a.145.145 0 01-.048.062.132.132 0 01-.086.027h-.302l1.148-2.756h.398l1.164 2.756zm-1.895-1.023h1.08l-.456-1.122a1.828 1.828 0 01-.086-.259l-.044.144c-.013.044-.029.084-.042.117l-.452 1.12zM23.385 28.931a.16.16 0 01.057.049l1.675 2.077v-.097V28.918h.343v2.756h-.191a.173.173 0 01-.078-.016.2.2 0 01-.061-.051l-1.673-2.075a.753.753 0 010 .095v2.048h-.343v-2.756h.203a.163.163 0 01.069.013zM28.281 30.577v1.094h-.383v-1.094l-1.059-1.66h.343a.124.124 0 01.082.024.256.256 0 01.052.062l.662 1.071a1.256 1.256 0 01.117.245l.05-.119c.019-.043.04-.085.065-.126l.653-1.078a.274.274 0 01.05-.058.116.116 0 01.082-.027h.346l-1.06 1.667zM12.715 24.293c.167.02.335.036.505.051 2.583-1.101 4.768-2.902 6.282-5.18s2.29-4.929 2.231-7.624l-2.846-2.712c.579 2.869.308 5.836-.782 8.567s-2.956 5.12-5.389 6.898z"/><path  d="M11.699 24.167l.076.015c2.6-1.772 4.583-4.247 5.691-7.104s1.292-5.965.526-8.922l-4.054-3.862c1.64 3.175 2.3 6.728 1.903 10.246s-1.833 6.857-4.143 9.628zM25.448 14.725c-.689 2.961-2.362 5.632-4.77 7.616a15.094 15.094 0 01-2.266 1.55c1.961-.549 3.764-1.52 5.269-2.838s2.672-2.947 3.412-4.763l-1.644-1.565z"/><path  d="M24.803 14.289l-2.341-2.23c-.045 2.543-.804 5.028-2.197 7.197s-3.372 3.943-5.729 5.137h.012c.525 0 1.05-.03 1.571-.089 2.203-.857 4.148-2.219 5.664-3.967s2.553-3.825 3.021-6.047zM12.038 2.664L9.245 0C6.748.919 4.601 2.535 3.084 4.636S.752 9.225.744 11.775c.009 2.818 1.005 5.552 2.829 7.77s4.372 3.793 7.242 4.476c2.561-2.973 4.061-6.647 4.281-10.488s-.851-7.648-3.058-10.869zM31.256 13.878c-.01-3.343-1.409-6.546-3.89-8.91s-5.843-3.696-9.352-3.706a13.655 13.655 0 00-4.741.841l17.099 16.291c.585-1.44.885-2.971.884-4.515z"/></symbol><symbol id="icon-company_logo_4" viewBox="0 0 32 32"><path  d="M4.961 12.532H4.96c-.905 0-1.639.715-1.639 1.597v.001c0 .882.734 1.597 1.639 1.597h.001c.905 0 1.638-.715 1.638-1.597v-.001c0-.882-.734-1.597-1.638-1.597zM17.055 12.022c-.003-1.225-.503-2.399-1.392-3.265S13.57 7.403 12.313 7.4c-1.257.002-2.462.49-3.351 1.356s-1.39 2.041-1.392 3.266v6.754s9.484-1.029 9.485-6.753v-.001zM0 20.993c.002.852.351 1.669.969 2.272s1.456.942 2.331.945c.874-.002 1.712-.342 2.33-.945s.967-1.419.969-2.271v-4.7S0 17.011 0 20.993zm3.3.842c-.171 0-.338-.049-.48-.142s-.253-.224-.318-.378a.821.821 0 01.187-.918.886.886 0 01.941-.182.865.865 0 01.388.31.825.825 0 01-.106 1.065c-.08.079-.176.141-.281.183s-.218.064-.331.064v-.003zM10.036 21.312h-.675v.697h-.352v-1.706h1.111v.285h-.759v.441h.675v.284zm1.689-.117c0 .168-.03.315-.089.442a.671.671 0 01-.635.396.678.678 0 01-.637-.393 1.009 1.009 0 01-.093-.436v-.084c0-.168.03-.316.09-.443a.672.672 0 01.637-.397.673.673 0 01.636.397c.061.128.091.275.091.442v.076zm-.356-.077c0-.179-.032-.315-.096-.408s-.155-.139-.274-.139c-.118 0-.209.046-.273.138s-.096.226-.097.403v.083c0 .174.032.309.096.405s.156.144.277.144c.118 0 .209-.046.272-.138s.095-.228.096-.405v-.083zm1.497.444c0-.066-.023-.117-.07-.152s-.131-.073-.253-.112a1.853 1.853 0 01-.289-.117c-.194-.105-.291-.246-.291-.423 0-.092.026-.174.077-.246s.127-.129.224-.17c.098-.041.207-.061.328-.061s.23.022.326.067a.495.495 0 01.301.46h-.352c0-.078-.025-.139-.074-.182s-.118-.066-.207-.066c-.086 0-.153.018-.2.055s-.071.084-.071.143c0 .055.028.102.083.139s.139.073.247.105c.2.06.346.135.437.224s.137.2.137.333c0 .148-.056.264-.168.348s-.262.125-.451.125c-.131 0-.251-.024-.359-.071s-.19-.114-.247-.198a.51.51 0 01-.084-.291h.353c0 .188.113.282.338.282.084 0 .149-.017.196-.05s.07-.082.07-.143zm1.876-.974h-.523v1.421h-.352v-1.421h-.516v-.285h1.39v.285zm1.228.682h-.675v.457h.792v.282h-1.144v-1.706h1.141v.285h-.79v.407h.675v.275zm.955.115h-.28v.625h-.352v-1.706h.634c.202 0 .357.045.466.135s.164.217.164.381c0 .116-.025.214-.076.292s-.126.139-.228.185l.369.697v.016h-.377l-.32-.625zm-.28-.285h.284c.088 0 .157-.022.205-.067s.073-.107.073-.186c0-.08-.023-.144-.069-.19s-.115-.069-.21-.069h-.282v.512zm2.13.309v.601h-.352v-1.706h.666c.128 0 .241.023.337.07a.528.528 0 01.304.494c0 .167-.057.299-.172.396s-.272.144-.475.144h-.308zm0-.285h.314c.093 0 .164-.022.212-.066s.074-.106.074-.187c0-.084-.025-.151-.074-.203s-.117-.078-.204-.08h-.322v.536zM21 21.27h-.675v.457h.792v.282h-1.144v-1.706h1.141v.285h-.79v.407h.675v.275zm1.631-.682h-.523v1.421h-.352v-1.421h-.516v-.285h1.39v.285zm1.228.682h-.675v.457h.792v.282h-1.144v-1.706h1.141v.285h-.79v.407h.675v.275zm.955.115h-.28v.625h-.352v-1.706h.634c.202 0 .357.045.466.135s.164.217.164.381c0 .116-.025.214-.076.292s-.126.139-.229.185l.369.697v.016h-.377l-.32-.625zm-.28-.285h.284c.088 0 .157-.022.205-.067s.073-.107.073-.186c0-.08-.023-.144-.069-.19s-.115-.069-.21-.069h-.282v.512zm2.066.462c0-.066-.023-.117-.07-.152s-.131-.073-.253-.112a1.853 1.853 0 01-.289-.117c-.194-.105-.291-.246-.291-.423 0-.092.026-.174.077-.246s.127-.129.224-.17c.098-.041.207-.061.328-.061s.23.022.326.067a.495.495 0 01.301.46h-.352c0-.078-.025-.139-.074-.182s-.118-.066-.207-.066c-.086 0-.153.018-.2.055s-.071.084-.071.143c0 .055.028.102.083.139s.139.073.247.105c.2.06.346.135.437.224s.137.2.137.333c0 .148-.056.264-.168.348s-.262.125-.451.125c-.131 0-.251-.024-.359-.071s-.19-.114-.247-.198a.51.51 0 01-.084-.291h.353c0 .188.112.282.337.282.084 0 .149-.017.196-.05s.07-.082.07-.143z"/></symbol><symbol id="icon-company_logo_5" viewBox="0 0 32 32"><path  d="M2.434 24.557a.852.852 0 01.188.548.862.862 0 01-.291.692 1.258 1.258 0 01-.845.253H0v-3.474h1.455c.287-.019.572.062.806.231a.793.793 0 01.282.65.8.8 0 01-.169.531.784.784 0 01-.443.271.842.842 0 01.502.297zm-1.743-.524h.622a.587.587 0 00.396-.115.417.417 0 00.133-.339.433.433 0 00-.132-.34.6.6 0 00-.407-.117H.691v.911zm1.079 1.332c.05-.044.089-.098.115-.159s.037-.128.032-.194a.44.44 0 00-.151-.357.642.642 0 00-.423-.126H.691v.955h.661a.652.652 0 00.417-.12zM5.409 26.051l-.81-1.358h-.304v1.358h-.696v-3.474h1.318c.332-.023.661.082.918.295a1.113 1.113 0 01.098 1.438 1.07 1.07 0 01-.629.353l.862 1.388h-.757zM4.295 24.22h.57c.396 0 .593-.175.593-.526a.517.517 0 00-.146-.39.618.618 0 00-.448-.141h-.576l.007 1.057zM9.215 25.352H7.827l-.245.699h-.73l1.274-3.435h.789l1.269 3.435h-.73l-.24-.699zm-.186-.526l-.507-1.466-.507 1.466h1.014zM13.98 26.051h-.691l-1.55-2.362v2.362h-.69v-3.474h.69l1.55 2.376v-2.376h.691v3.474zM17.925 25.219a1.501 1.501 0 01-.625.613 2.025 2.025 0 01-.972.219h-1.231v-3.474h1.231c.336-.009.67.065.972.214.265.134.483.345.625.606a2.032 2.032 0 010 1.822zm-.791-.083a1.278 1.278 0 000-1.658 1.196 1.196 0 00-.865-.295h-.48v2.249h.48c.316.02.627-.086.865-.295zM9.648 3.254s8.923 3.382 8.734 8.277v8.278s-8.916-3.384-8.73-8.278l-.003-8.277zM26.331 17.871A12.198 12.198 0 0132 15.773v-2.591a11.639 11.639 0 00-5.669 4.689z"/><path  d="M25.318 18.652A12.14 12.14 0 0132 12.639V5.172S19.293 9.99 19.561 16.96v11.786s.566-.216 1.457-.619c0-.377 0-.757.041-1.139a12.261 12.261 0 014.259-8.336z"/><path  d="M24.11 23.03c.067-.817.216-1.626.445-2.413a11.41 11.41 0 00-2.691 7.119 36.68 36.68 0 002.444-1.293 12.251 12.251 0 01-.198-3.413zM24.615 23.072a11.68 11.68 0 00.157 3.09c3.472-2.086 7.373-5.308 7.223-9.203v-.339a11.378 11.378 0 00-6.606 3.099 11.679 11.679 0 00-.774 3.353z"/></symbol><symbol id="icon-company_logo_6" viewBox="0 0 32 32"><path  d="M16.086 15.408a1.174 1.174 0 01-.205-.74v-1.072c0-.329.068-.579.204-.749s.369-.256.701-.255c.311 0 .532.073.663.218a.947.947 0 01.196.641v.252h-.557v-.255a1.394 1.394 0 00-.016-.25.242.242 0 00-.08-.148.3.3 0 00-.202-.058.319.319 0 00-.212.061.291.291 0 00-.092.164 1.388 1.388 0 00-.022.265v1.301a.72.72 0 00.071.365.27.27 0 00.255.11.283.283 0 00.197-.059.269.269 0 00.083-.158 1.52 1.52 0 00.017-.261v-.264h.557v.241c.016.239-.052.476-.192.674-.128.159-.346.239-.666.239s-.562-.085-.699-.262zM18.404 15.419c-.141-.167-.211-.41-.211-.732v-1.128c0-.319.07-.56.211-.723s.376-.245.705-.244c.327 0 .561.081.702.244s.212.405.212.723v1.128c0 .319-.071.563-.214.731s-.376.252-.699.252-.564-.085-.705-.251zm.964-.271a.69.69 0 00.067-.334v-1.381a.66.66 0 00-.066-.327c-.028-.039-.068-.071-.114-.09s-.097-.026-.147-.019c-.05-.007-.101 0-.147.019s-.086.05-.114.09a.642.642 0 00-.067.327v1.388a.668.668 0 00.067.334.348.348 0 00.26.112.37.37 0 00.143-.029.337.337 0 00.117-.083v-.007zM20.692 12.624h.599l.451 2.081.461-2.081h.583l.059 3.004h-.431l-.046-2.088-.445 2.088h-.346l-.461-2.095-.043 2.095h-.436l.054-3.004zM23.517 12.624h.933c.538 0 .807.284.807.853 0 .545-.283.817-.849.816h-.318v1.335h-.576l.003-3.004zm.797 1.284a.418.418 0 00.316-.094.524.524 0 00.083-.339 1.006 1.006 0 00-.028-.273.228.228 0 00-.115-.142.55.55 0 00-.257-.048h-.224v.898h.224zM26.087 12.624h.619l.635 3.004h-.537l-.126-.693h-.552l-.129.693h-.545l.635-3.004zm.529 1.964l-.215-1.261-.215 1.261h.431zM27.854 12.624h.403l.772 1.714v-1.714h.478v3.004h-.384l-.777-1.789v1.789h-.494l.001-3.004zM30.628 14.483l-.642-1.854h.54l.392 1.191.368-1.191h.529l-.634 1.854v1.145h-.553v-1.145zM16.976 16.942v.157h-.47v1.221h-.197v-1.221h-.472v-.157h1.14zM18.45 18.32h-.152a.066.066 0 01-.043-.013.066.066 0 01-.025-.032l-.136-.327h-.652l-.136.327a.091.091 0 01-.021.037.065.065 0 01-.043.013h-.152l.576-1.378h.201l.583 1.372zm-.954-.512h.544l-.23-.561a1.164 1.164 0 01-.043-.13l-.022.073-.021.058-.228.56zM19.443 18.184a.973.973 0 00.108 0 .708.708 0 00.252-.075v-.31h-.23c-.006 0-.011 0-.017-.002s-.01-.005-.014-.009c-.004-.003-.007-.007-.009-.011s-.003-.009-.003-.014v-.106h.447v.528a.77.77 0 01-.243.112.873.873 0 01-.144.028 1.576 1.576 0 01-.168.009.817.817 0 01-.29-.051.694.694 0 01-.23-.144.672.672 0 01-.202-.504.769.769 0 01.052-.288c.033-.082.084-.156.149-.218s.144-.111.23-.143a.876.876 0 01.309-.051c.054 0 .107.004.16.012a.706.706 0 01.352.162l-.055.085c-.004.008-.011.014-.019.019s-.017.007-.026.007a.066.066 0 01-.036-.011.73.73 0 01-.056-.033.454.454 0 00-.077-.037.76.76 0 00-.106-.031.89.89 0 00-.146-.012.621.621 0 00-.222.038.478.478 0 00-.169.109.488.488 0 00-.107.171.708.708 0 000 .459.497.497 0 00.283.282.586.586 0 00.228.027zM21.28 18.162h.629v.157h-.822v-1.378h.197l-.005 1.221zM22.564 18.319h-.197v-1.378h.197v1.378zM23.297 16.948a.091.091 0 01.03.025l.842 1.039a.4.4 0 010-.049v-1.027h.172v1.383h-.099a.092.092 0 01-.043-.008.113.113 0 01-.031-.026l-.841-1.037v1.072h-.165v-1.378h.103c.011 0 .022.002.032.007zM25.791 16.942v.152h-.698v.455h.566v.146h-.566v.47h.698v.152h-.901v-1.375h.901zM5.143 8.433l8.75 2.352v8.242l-8.75-2.351V8.433zm-.561-.703v9.346l9.871 2.654v-9.345L4.582 7.73z"/><path  d="M9.872 24.068L0 21.412v-9.345l9.872 2.655v9.346z"/><path  d="M4.745 8.327l8.636 2.322-3.672 3.478-8.637-2.324 3.674-3.477zm-.163-.597L0 12.067l9.872 2.655 4.581-4.337L4.582 7.73zM10.428 23.543l4.025-3.811-4.025-1.083v4.895z"/></symbol><symbol id="icon-footer-facebook" viewBox="0 0 32 32"><path  d="M21.329 5.313h2.921V.225C23.746.156 22.013 0 19.994 0c-4.212 0-7.097 2.649-7.097 7.519V12H8.249v5.688h4.648V32h5.699V17.689h4.46l.708-5.688h-5.169V8.082c.001-1.644.444-2.769 2.735-2.769z"/></symbol><symbol id="icon-footer-instagram" viewBox="0 0 32 32"><path  d="M31.969 9.408c-.075-1.7-.35-2.869-.744-3.882a7.806 7.806 0 00-1.851-2.838A7.867 7.867 0 0026.542.844C25.523.45 24.36.175 22.66.1 20.947.019 20.403 0 16.059 0s-4.888.019-6.595.094c-1.7.075-2.869.35-3.882.744a7.803 7.803 0 00-2.838 1.85A7.867 7.867 0 00.9 5.52C.506 6.539.231 7.702.156 9.402c-.081 1.713-.1 2.257-.1 6.601s.019 4.888.094 6.595c.075 1.7.35 2.869.744 3.882a7.895 7.895 0 001.85 2.838 7.867 7.867 0 002.832 1.844c1.019.394 2.182.669 3.882.744 1.706.075 2.25.094 6.595.094s4.888-.019 6.595-.094c1.7-.075 2.869-.35 3.882-.744a8.184 8.184 0 004.682-4.682c.394-1.019.669-2.182.744-3.882.075-1.707.094-2.251.094-6.595s-.006-4.888-.081-6.595zm-2.882 13.065c-.069 1.563-.331 2.407-.55 2.969a5.31 5.31 0 01-3.038 3.038c-.563.219-1.413.481-2.969.55-1.688.075-2.194.094-6.464.094s-4.782-.019-6.464-.094c-1.563-.069-2.407-.331-2.969-.55a4.926 4.926 0 01-1.838-1.194 4.974 4.974 0 01-1.194-1.838c-.219-.563-.481-1.413-.55-2.969-.075-1.688-.094-2.194-.094-6.464s.019-4.782.094-6.464c.069-1.563.331-2.407.55-2.969a4.868 4.868 0 011.2-1.838A4.974 4.974 0 016.639 3.55c.563-.219 1.413-.481 2.969-.55 1.688-.075 2.194-.094 6.464-.094 4.276 0 4.782.019 6.464.094 1.563.069 2.407.331 2.969.55a4.914 4.914 0 011.838 1.194 4.974 4.974 0 011.194 1.838c.219.563.481 1.413.55 2.969.075 1.688.094 2.194.094 6.464s-.019 4.77-.094 6.458z"/><path  d="M16.059 7.783c-4.538 0-8.22 3.682-8.22 8.22s3.682 8.22 8.22 8.22c4.539 0 8.22-3.682 8.22-8.22s-3.682-8.22-8.22-8.22zm0 13.553a5.333 5.333 0 010-10.664 5.333 5.333 0 010 10.664zM26.524 7.458a1.919 1.919 0 11-3.838 0 1.919 1.919 0 013.838 0z"/></symbol><symbol id="icon-footer-linkedin" viewBox="0 0 32 32"><path  d="M31.992 32v-.001H32V20.263c0-5.741-1.236-10.164-7.948-10.164-3.227 0-5.392 1.771-6.276 3.449h-.093v-2.913h-6.364v21.364h6.627V21.42c0-2.785.528-5.479 3.977-5.479 3.399 0 3.449 3.179 3.449 5.657v10.401h6.62zM.528 10.636h6.635V32H.528V10.636zM3.843 0C1.722 0 0 1.721 0 3.843s1.721 3.879 3.843 3.879c2.121 0 3.843-1.757 3.843-3.879A3.846 3.846 0 003.843 0z"/></symbol><symbol id="icon-footer-twitter" viewBox="0 0 32 32"><path  d="M32 6.078c-1.19.522-2.458.868-3.78 1.036a6.523 6.523 0 002.886-3.626 13.11 13.11 0 01-4.16 1.588A6.574 6.574 0 0022.154 3c-3.632 0-6.556 2.948-6.556 6.562 0 .52.044 1.02.152 1.496-5.454-.266-10.28-2.88-13.522-6.862a6.605 6.605 0 00-.898 3.316 6.57 6.57 0 002.914 5.452 6.479 6.479 0 01-2.964-.808v.072c0 3.188 2.274 5.836 5.256 6.446a6.548 6.548 0 01-1.72.216 5.8 5.8 0 01-1.242-.112c.85 2.598 3.262 4.508 6.13 4.57a13.182 13.182 0 01-8.134 2.798c-.538 0-1.054-.024-1.57-.09A18.469 18.469 0 0010.064 29c12.072 0 18.672-10 18.672-18.668 0-.29-.01-.57-.024-.848A13.087 13.087 0 0032 6.078z"/></symbol><symbol id="icon-team-facebook" viewBox="0 0 32 32"><path  d="M18.422 11.142h1.328V8.829a17.317 17.317 0 00-1.935-.102c-1.915 0-3.226 1.204-3.226 3.418v2.037h-2.113v2.585h2.113v6.505h2.59v-6.505h2.027l.322-2.585h-2.35v-1.781c.001-.747.202-1.259 1.243-1.259z"/></symbol><symbol id="icon-team-instagram" viewBox="0 0 32 32"><path d="M23.258 13.004c-.034-.773-.159-1.304-.338-1.765a3.557 3.557 0 00-.841-1.29 3.589 3.589 0 00-1.287-.838c-.463-.179-.992-.304-1.764-.338-.779-.037-1.026-.046-3.001-.046s-2.222.009-2.998.043c-.773.034-1.304.159-1.764.338a3.557 3.557 0 00-1.29.841 3.589 3.589 0 00-.838 1.287c-.179.463-.304.992-.338 1.764-.037.779-.045 1.026-.045 3.001s.008 2.222.043 2.998c.034.773.159 1.304.338 1.765.185.489.472.926.841 1.29.364.369.804.656 1.287.838.463.179.992.304 1.765.338.776.034 1.023.043 2.998.043s2.222-.008 2.998-.043c.773-.034 1.304-.159 1.764-.338a3.72 3.72 0 002.128-2.128c.179-.463.304-.992.338-1.765.034-.776.043-1.023.043-2.998s-.003-2.222-.037-2.998zm-1.309 5.938c-.031.71-.151 1.094-.25 1.35a2.409 2.409 0 01-1.381 1.381c-.256.099-.642.219-1.35.25-.767.034-.997.043-2.938.043s-2.174-.008-2.938-.043c-.71-.031-1.094-.15-1.35-.25a2.228 2.228 0 01-.835-.543 2.264 2.264 0 01-.543-.835c-.099-.256-.219-.642-.25-1.35-.034-.767-.043-.997-.043-2.938s.008-2.174.043-2.938c.031-.71.151-1.094.25-1.35.117-.315.301-.602.546-.835.236-.242.52-.426.835-.543.256-.099.642-.219 1.35-.25.767-.034.997-.043 2.938-.043 1.944 0 2.174.008 2.938.043.71.031 1.094.151 1.35.25.315.116.602.301.835.543.241.236.426.52.543.835.099.256.219.642.25 1.35.034.767.043.997.043 2.938s-.009 2.168-.043 2.935z"/><path  d="M16.027 12.265a3.737 3.737 0 10.003 7.475 3.737 3.737 0 00-.003-7.475zm0 6.16a2.424 2.424 0 110-4.849 2.424 2.424 0 010 4.849zM20.784 12.117a.872.872 0 11-1.744 0 .872.872 0 011.744 0z"/></symbol><symbol id="icon-team-linkedin" viewBox="0 0 32 32"><path  d="M23.269 23.273v-.001h.004v-5.335c0-2.61-.562-4.62-3.613-4.62-1.467 0-2.451.805-2.853 1.568h-.042v-1.324h-2.893v9.711h3.012v-4.809c0-1.266.24-2.49 1.808-2.49 1.545 0 1.568 1.445 1.568 2.572v4.728h3.009zM8.967 13.562h3.016v9.711H8.967v-9.711zM10.474 8.727c-.964 0-1.747.782-1.747 1.747s.782 1.763 1.747 1.763c.964 0 1.747-.799 1.747-1.763s-.783-1.747-1.747-1.747z"/></symbol><symbol id="icon-team-twitter" viewBox="0 0 32 32"><path  d="M23.273 11.49a6.248 6.248 0 01-1.718.471 2.967 2.967 0 001.312-1.648 5.963 5.963 0 01-1.891.722 2.981 2.981 0 00-5.158 2.039c0 .236.02.464.069.68a8.439 8.439 0 01-6.146-3.119 2.985 2.985 0 00.917 3.985 2.943 2.943 0 01-1.347-.367v.033a2.996 2.996 0 002.389 2.93 2.992 2.992 0 01-.782.098 2.64 2.64 0 01-.565-.051 3.01 3.01 0 002.786 2.077 5.991 5.991 0 01-3.697 1.272 5.59 5.59 0 01-.714-.041 8.393 8.393 0 004.575 1.338c5.487 0 8.487-4.545 8.487-8.485 0-.132-.005-.259-.011-.385a5.95 5.95 0 001.495-1.548z"/></symbol><symbol id="icon-telegram" viewBox="0 0 32 32"><path  d="M32 0L0 18l10.227 3.788L26 7 14.002 23.186l.01.004-.012-.004V32l5.735-6.691L27 28l5-28z"/></symbol><symbol id="icon-Client_1" viewBox="0 0 60 32"><path d="M24.533 7.111l2.598 2.46h7.248v6.861l2.598 2.46V7.111H24.533z"/><path d="M22.4 9.467v11.444h12.089v-4.549L27.208 9.47 22.4 9.467zm9.786 9.771h-7.873v-7.697h.556v7.176h7.317v.521zM25.881 23.034l.291-.599h.243l-.424.799v.465h-.22v-.465l-.424-.799h.244l.291.599zm1.249.371h-.49l-.102.294h-.228l.477-1.264h.197l.478 1.264h-.229l-.103-.294zm-.428-.177h.366l-.183-.524-.183.524zm1.293.13c0-.058.016-.112.048-.161s.095-.107.188-.174c-.049-.062-.084-.115-.103-.158s-.029-.085-.029-.126c0-.099.03-.177.09-.234s.141-.087.243-.087c.092 0 .167.027.226.082s.089.121.089.201c0 .053-.013.101-.04.146s-.07.088-.131.132l-.086.063.244.288a.508.508 0 00.053-.232h.183a.632.632 0 01-.109.383l.186.22h-.245l-.071-.084c-.09.068-.198.102-.323.102s-.225-.033-.3-.099a.331.331 0 01-.112-.26zm.418.19a.326.326 0 00.2-.071l-.276-.326-.027.019c-.069.053-.104.113-.104.181 0 .058.019.106.056.142s.088.055.151.055zm-.116-.814c0 .049.03.11.089.183l.096-.066.027-.022a.157.157 0 00.054-.122c0-.033-.012-.061-.037-.084s-.056-.036-.095-.036c-.041 0-.074.014-.098.042s-.036.063-.036.105zm2.296.554c-.013.135-.063.24-.149.316s-.202.113-.346.113a.46.46 0 01-.444-.275.733.733 0 01-.065-.306v-.118c0-.119.021-.224.063-.315a.478.478 0 01.455-.284c.14 0 .252.038.337.114s.135.183.148.321h-.219c-.01-.091-.037-.156-.08-.196s-.104-.061-.187-.061c-.095 0-.169.035-.22.105s-.077.172-.078.306v.112c0 .137.024.241.073.313s.121.108.215.108c.086 0 .151-.019.194-.058s.071-.103.082-.194h.219zm1.206-.188c0 .124-.021.233-.064.326a.486.486 0 01-.458.29c-.102 0-.194-.025-.274-.075s-.142-.122-.186-.214a.768.768 0 01-.066-.32v-.071c0-.123.022-.232.065-.326a.492.492 0 01.459-.292.5.5 0 01.273.075c.08.049.142.12.185.213s.065.201.066.324v.07zm-.22-.066c0-.14-.027-.247-.08-.322s-.128-.112-.225-.112c-.095 0-.169.037-.223.112s-.08.179-.082.315v.073c0 .139.027.246.081.322s.13.114.226.114c.097 0 .172-.037.224-.111s.079-.182.079-.325v-.066z"/></symbol><symbol id="icon-Client_2" viewBox="0 0 60 32"><path d="M29.147 7.799h.049c.09 0 .187.009.283.017.424.03.845.093 1.259.19V6.988a7.506 7.506 0 00-1.3-.207 9.488 9.488 0 00-.525-.025h-.152c-.88.003-1.756.116-2.608.336-.971.242-1.902.621-2.768 1.126v10.097a11.224 11.224 0 012.638-1.028 11.508 11.508 0 012.214-.34h.03c.125-.006.25-.01.379-.011v-1.034c-.971.012-1.937.141-2.878.382-.348.09-.684.188-1 .297l-.36.122V8.831l.154-.074a10.057 10.057 0 013.771-.954c.143-.007.287-.011.428-.011h.162c.075.002.149.004.224.008z"/><path d="M31.684 8.865a9.303 9.303 0 01-1.506-.122 8.306 8.306 0 01-.47-.095v9.981c.647.16 1.312.239 1.979.233a10.67 10.67 0 002.608-.335 10.57 10.57 0 002.769-1.126V7.484c-.833.452-1.719.798-2.637 1.029-.896.23-1.817.348-2.742.352zm3.991.173l.36-.121v7.875l-.154.074a9.865 9.865 0 01-1.839.661 9.59 9.59 0 01-2.354.305 8.1 8.1 0 01-.702-.03l-.246-.022V9.682l.287.019c.209.014.425.02.659.02a12.206 12.206 0 002.989-.383c.336-.089.669-.188 1-.299zM24.084 21.764a.53.53 0 00-.4-.162.607.607 0 00-.231.043.515.515 0 00-.296.299.588.588 0 00-.041.223v1.349a.643.643 0 00.053.277.482.482 0 00.32.277.762.762 0 00.201.028.56.56 0 00.516-.353.53.53 0 00.043-.215v-.151h-.353v.12a.307.307 0 01-.021.12.221.221 0 01-.051.076.268.268 0 01-.148.052.182.182 0 01-.165-.073.319.319 0 01-.047-.181v-1.258a.44.44 0 01.043-.202c.018-.028.044-.051.075-.066s.064-.02.098-.016c.03-.001.061.005.088.018s.051.033.069.057c.039.052.06.116.058.181v.117h.349v-.137a.633.633 0 00-.161-.426zM26.179 21.749a.626.626 0 00-.401-.148.6.6 0 00-.396.148.56.56 0 00-.137.189.617.617 0 00-.051.261v1.294a.636.636 0 00.051.265.53.53 0 00.137.181.55.55 0 00.186.114.604.604 0 00.611-.114.542.542 0 00.133-.181.62.62 0 00.051-.265v-1.294a.584.584 0 00-.184-.45zm-.164 1.744a.236.236 0 01-.07.188.258.258 0 01-.332 0 .236.236 0 01-.07-.188v-1.294a.236.236 0 01.07-.188.258.258 0 01.332 0 .236.236 0 01.07.188v1.294zM28.931 24.071v-2.449h-.339l-.445 1.297h-.006l-.449-1.297h-.335v2.449h.35v-1.49h.006l.343 1.053h.174l.345-1.053h.006v1.49h.35zM30.918 21.793a.498.498 0 00-.198-.134.783.783 0 00-.254-.038h-.52v2.449h.349v-.957h.18a.638.638 0 00.315-.067.522.522 0 00.192-.187.586.586 0 00.08-.213c.014-.092.02-.185.019-.278a1.42 1.42 0 00-.034-.35.519.519 0 00-.129-.225zm-.18.747a.336.336 0 01-.032.128.197.197 0 01-.09.086.36.36 0 01-.165.031h-.159v-.833h.18a.327.327 0 01.157.031.199.199 0 01.082.09.375.375 0 01.031.137v.163c0 .057.004.116 0 .168h-.004zM32.572 21.622h-.286l-.54 2.449h.349l.103-.526h.476l.103.526h.349l-.553-2.449zm-.322 1.589l.172-.888h.006l.171.888h-.349zM34.827 23.097h-.006l-.527-1.476h-.335v2.449h.349v-1.473h.007l.533 1.473h.328v-2.449h-.349v1.476zM36.959 21.622l-.281.974h-.007l-.281-.974h-.37l.479 1.414v1.035h.349v-1.035l.479-1.414h-.369zM23.111 24.762h.168v.472h.114v-.472h.167v-.097h-.45v.097zM24.525 24.666l-.22.569h.121l.047-.129h.227l.049.129h.124l-.226-.569h-.121zm-.018.343l.077-.211.077.211h-.155zM25.923 25.025h.131v.073a.214.214 0 01-.135.048c-.023.001-.046-.003-.067-.012s-.039-.024-.054-.042a.237.237 0 01-.042-.148c0-.127.055-.19.164-.19.029-.003.057.005.081.021s.041.041.048.069l.112-.022c-.024-.111-.104-.167-.241-.167a.287.287 0 00-.199.073.275.275 0 00-.082.218.31.31 0 00.073.213c.028.029.062.051.099.065s.077.02.117.018a.342.342 0 00.241-.09v-.224h-.246v.096zM27.35 24.666h-.115v.569h.398v-.097h-.283v-.472zM28.557 24.666h-.115v.569h.115v-.569zM29.737 25.046l-.233-.38h-.112v.569h.107v-.372l.228.372h.114v-.569h-.105v.38zM30.804 24.984h.283v-.097h-.283v-.125h.305v-.097h-.42v.569h.432v-.097h-.317v-.154zM33.391 24.89h-.224v-.224h-.114v.569h.114v-.249h.224v.249h.114v-.569h-.114v.224zM34.464 24.984h.284v-.097h-.284v-.125h.306v-.097h-.42v.569h.431v-.097h-.317v-.154zM35.919 24.984c.099-.015.149-.068.149-.158.003-.024-.001-.049-.011-.071s-.025-.041-.045-.056a.32.32 0 00-.166-.033h-.241v.569h.114v-.238h.022a.145.145 0 01.071.013c.017.01.031.025.041.042l.124.181h.137l-.069-.111a.404.404 0 00-.126-.137zm-.115-.079h-.084v-.143h.09a.285.285 0 01.116.014c.008.007.015.017.019.027s.006.021.006.032a.073.073 0 01-.031.057.327.327 0 01-.116.014zM37.017 24.984h.283v-.097h-.283v-.125h.306v-.097h-.421v.569h.432v-.097h-.317v-.154z"/></symbol><symbol id="icon-Client_3" viewBox="0 0 60 32"><path d="M25.367 23.394c.005 0 .011.001.015.003s.009.005.013.009l.073.077a.604.604 0 01-.206.146.727.727 0 01-.292.052.711.711 0 01-.274-.049.592.592 0 01-.341-.351.773.773 0 01-.047-.273.739.739 0 01.05-.274.642.642 0 01.142-.213.654.654 0 01.22-.139.799.799 0 01.283-.049.704.704 0 01.262.044c.072.03.139.072.197.123l-.061.082a.057.057 0 01-.016.015c-.007.005-.016.007-.025.006s-.019-.004-.027-.009l-.033-.022-.046-.028a.597.597 0 00-.253-.058.537.537 0 00-.203.037.454.454 0 00-.262.267.615.615 0 00-.038.216.614.614 0 00.038.22c.022.06.057.116.102.163a.414.414 0 00.152.101c.06.024.124.035.188.035a.702.702 0 00.112-.007.42.42 0 00.241-.112.05.05 0 01.035-.014zM27.48 23.008a.742.742 0 01-.049.271c-.03.079-.077.15-.138.21s-.135.107-.216.138a.817.817 0 01-.556 0 .627.627 0 01-.354-.352.77.77 0 010-.543.623.623 0 01.139-.213.627.627 0 01.215-.133.805.805 0 01.556 0 .609.609 0 01.354.349.71.71 0 01.049.273zm-.192 0a.623.623 0 00-.035-.218.43.43 0 00-.253-.266.585.585 0 00-.404 0 .43.43 0 00-.254.266.692.692 0 000 .436.45.45 0 00.099.163.44.44 0 00.155.102c.13.046.274.046.404 0a.427.427 0 00.253-.265.623.623 0 00.035-.218zM28.921 23.237l.019.049a2.405 2.405 0 01.045-.097l.467-.809c.009-.014.017-.023.027-.025a.097.097 0 01.038-.004h.138v1.316h-.164v-.968-.041-.045l-.47.821c-.006.012-.016.023-.028.03s-.026.011-.04.011h-.027c-.014 0-.028-.004-.04-.011s-.022-.018-.027-.03l-.484-.826v1.057h-.158v-1.314h.138a.12.12 0 01.038.004c.011.005.02.014.026.025l.477.81a.416.416 0 01.024.047zM30.68 23.171v.493h-.183v-1.315h.408a.797.797 0 01.228.029.44.44 0 01.161.082.33.33 0 01.091.129.424.424 0 01.031.168.373.373 0 01-.133.3.446.446 0 01-.162.087.684.684 0 01-.22.03l-.221-.003zm0-.141h.221a.456.456 0 00.142-.02.277.277 0 00.102-.057.232.232 0 00.062-.087.282.282 0 00.022-.111.244.244 0 00-.082-.197.371.371 0 00-.246-.071h-.221v.542zM33.138 23.666h-.145a.07.07 0 01-.04-.012.086.086 0 01-.024-.03l-.124-.318h-.625l-.129.318a.076.076 0 01-.023.03.061.061 0 01-.041.013h-.145l.549-1.317h.19l.556 1.317zm-.905-.489h.516l-.218-.536a.9.9 0 01-.041-.124l-.021.069c-.006.021-.014.04-.02.056l-.216.535zM33.928 22.356c.011.006.02.014.027.024l.8.992v-.046V22.35h.164v1.317h-.091c-.013 0-.026-.002-.037-.008s-.021-.015-.029-.024l-.799-.992v.045.978h-.164v-1.317h.097c.011 0 .023.002.033.006zM36.268 23.143v.523h-.183v-.523l-.506-.793h.164a.06.06 0 01.039.011c.01.008.018.018.025.03l.316.512a.765.765 0 01.056.117l.024-.057a.425.425 0 01.031-.06l.312-.515a.127.127 0 01.024-.028.056.056 0 01.039-.013h.166l-.507.796zM28.831 20.14c.08.01.16.017.241.024 1.234-.526 2.278-1.387 3.001-2.475s1.094-2.355 1.066-3.643l-1.36-1.296c.276 1.371.147 2.788-.374 4.093s-1.412 2.446-2.575 3.296z"/><path d="M28.345 20.08l.037.007c1.242-.847 2.19-2.029 2.719-3.394s.617-2.85.251-4.263l-1.937-1.845c.783 1.517 1.099 3.215.909 4.895s-.876 3.276-1.979 4.6zM34.914 15.568a6.683 6.683 0 01-2.279 3.639 7.271 7.271 0 01-1.083.741c.937-.262 1.798-.726 2.517-1.356s1.277-1.408 1.63-2.276l-.786-.748z"/><path  d="M34.606 15.36l-1.118-1.066c-.021 1.215-.384 2.402-1.05 3.438s-1.611 1.884-2.737 2.454h.006c.251 0 .502-.014.751-.043 1.052-.409 1.982-1.06 2.706-1.895s1.22-1.827 1.443-2.889zM28.507 9.806l-1.334-1.273c-1.193.439-2.219 1.211-2.943 2.215s-1.114 2.193-1.118 3.411c.004 1.346.48 2.653 1.352 3.712s2.089 1.812 3.46 2.139c1.224-1.421 1.94-3.176 2.045-5.011s-.407-3.654-1.461-5.193zM37.689 15.164c-.005-1.597-.673-3.128-1.858-4.257s-2.792-1.766-4.468-1.771a6.51 6.51 0 00-2.265.402l8.17 7.783a5.72 5.72 0 00.422-2.157z"/></symbol><symbol id="icon-Client_4" viewBox="0 0 60 32"><path d="M20.41 13.095h-.001c-.804 0-1.456.635-1.456 1.419v.001c0 .784.652 1.419 1.456 1.419h.001c.804 0 1.456-.635 1.456-1.419v-.001c0-.784-.652-1.419-1.456-1.419zM31.16 12.642c-.002-1.089-.447-2.132-1.237-2.902s-1.861-1.204-2.978-1.206c-1.118.002-2.189.435-2.979 1.205s-1.235 1.814-1.238 2.903v6.004s8.43-.915 8.431-6.003v-.001zM16 20.616c.002.758.312 1.484.861 2.019s1.294.838 2.072.84c.777-.002 1.522-.304 2.071-.84s.859-1.261.862-2.019v-4.178S16 17.075 16 20.615zm2.933.748c-.152 0-.3-.044-.427-.126a.746.746 0 01-.327-.768c.03-.145.103-.279.21-.383a.778.778 0 011.182.114.73.73 0 01.071.703.766.766 0 01-.711.464v-.003zM24.921 20.9h-.6v.62h-.313v-1.517h.988v.253h-.675v.392h.6v.252zm1.502-.104c0 .149-.026.28-.079.393s-.128.199-.227.26a.624.624 0 01-.337.092c-.126 0-.238-.03-.336-.091s-.175-.147-.229-.258a.889.889 0 01-.082-.388v-.075c0-.149.027-.281.08-.394a.595.595 0 01.565-.353.62.62 0 01.336.092c.099.06.175.148.228.261s.081.244.081.393v.068zm-.317-.069c0-.159-.028-.28-.085-.363s-.138-.124-.244-.124c-.105 0-.186.041-.243.123s-.086.201-.086.358v.074c0 .155.028.275.085.36s.139.128.246.128c.105 0 .185-.041.242-.123s.085-.203.085-.36v-.074zm1.33.395c0-.059-.021-.104-.063-.135s-.117-.065-.225-.1a1.588 1.588 0 01-.257-.104c-.172-.093-.258-.218-.258-.376 0-.082.023-.155.069-.219s.113-.115.199-.151c.087-.036.184-.054.292-.054s.205.02.29.059a.436.436 0 01.268.41h-.313c0-.069-.022-.123-.066-.161s-.105-.058-.184-.058c-.076 0-.136.016-.178.049s-.064.074-.064.127c0 .049.025.091.074.124s.123.065.22.094c.178.053.307.12.389.199s.122.178.122.296c0 .131-.05.234-.149.309s-.233.111-.401.111c-.117 0-.223-.021-.319-.064s-.169-.102-.22-.176a.45.45 0 01-.075-.258h.314c0 .167.1.251.3.251.074 0 .132-.015.174-.045s.063-.073.063-.127zm1.668-.866h-.465v1.264h-.313v-1.264h-.458v-.253h1.235v.253zm1.092.607h-.6v.406h.704v.251h-1.017v-1.517h1.015v.253h-.702v.361h.6v.245zm.848.102h-.249v.555h-.313v-1.517h.564c.179 0 .317.04.415.12s.146.193.146.339c0 .103-.023.19-.068.259s-.112.124-.203.165l.328.62v.015h-.335l-.284-.555zm-.248-.254h.252c.078 0 .139-.02.182-.059s.065-.096.065-.166c0-.072-.02-.128-.061-.169s-.102-.061-.186-.061h-.251v.455zm1.893.274v.534h-.313v-1.517h.592c.114 0 .214.021.3.063a.463.463 0 01.27.439c0 .149-.051.266-.153.352s-.242.128-.422.128h-.274zm0-.253h.279c.083 0 .145-.019.189-.058s.066-.094.066-.167c0-.074-.022-.134-.066-.18s-.104-.069-.181-.071h-.286v.476zm1.977.131h-.6v.406h.704v.251h-1.017v-1.517h1.015v.253h-.702v.361h.6v.245zm1.45-.607h-.464v1.264h-.313v-1.264h-.458v-.253h1.235v.253zm1.092.607h-.6v.406h.704v.251h-1.017v-1.517h1.015v.253h-.702v.361h.6v.245zm.849.102h-.249v.555h-.313v-1.517h.564c.179 0 .318.04.415.12s.146.193.146.339c0 .103-.022.19-.068.259s-.112.124-.203.165l.328.62v.015h-.336l-.284-.555zm-.249-.254h.252c.079 0 .139-.02.182-.059s.065-.096.065-.166c0-.072-.021-.128-.062-.169s-.102-.061-.187-.061h-.251v.455zm1.836.411c0-.059-.021-.104-.063-.135s-.117-.065-.225-.1a1.588 1.588 0 01-.257-.104c-.172-.093-.258-.218-.258-.376 0-.082.023-.155.069-.219s.113-.115.199-.151c.087-.036.184-.054.292-.054s.205.02.289.059a.436.436 0 01.268.41h-.313c0-.069-.022-.123-.065-.161s-.105-.058-.185-.058c-.076 0-.136.016-.178.049s-.064.074-.064.127c0 .049.025.091.074.124.05.033.123.065.22.094.178.053.307.12.388.199s.122.178.122.296c0 .131-.05.234-.149.309s-.233.111-.401.111c-.117 0-.223-.021-.319-.064s-.169-.102-.22-.176a.45.45 0 01-.075-.258h.313c0 .167.1.251.3.251.074 0 .132-.015.174-.045s.063-.073.063-.127z"/></symbol><symbol id="icon-Client_5" viewBox="0 0 60 32"><path  d="M21.507 21.788a.559.559 0 01.123.359.576.576 0 01-.191.454.829.829 0 01-.554.166h-.974V20.49h.954a.814.814 0 01.529.151.515.515 0 01.185.426.526.526 0 01-.111.348.52.52 0 01-.29.178.555.555 0 01.329.195zm-1.143-.344h.408a.381.381 0 00.259-.076.274.274 0 00.088-.223.279.279 0 00-.086-.222.394.394 0 00-.267-.077h-.401v.597zm.707.873a.286.286 0 00.096-.231.292.292 0 00-.098-.233.418.418 0 00-.277-.082h-.428v.626h.433a.426.426 0 00.274-.079zM23.457 22.767l-.531-.89h-.199v.89h-.456V20.49h.864a.85.85 0 01.602.194.732.732 0 01.064.942.699.699 0 01-.412.231l.565.91h-.496zm-.73-1.201h.373c.259 0 .389-.115.389-.345.003-.047-.004-.094-.021-.138s-.042-.084-.074-.118a.402.402 0 00-.294-.092h-.378l.004.693zM25.952 22.308h-.91l-.161.458h-.479l.835-2.252h.517l.832 2.252h-.479l-.157-.458zm-.122-.345l-.332-.961-.332.961h.665zM29.076 22.767h-.453l-1.016-1.549v1.549h-.452V20.49h.452l1.016 1.558V20.49h.453v2.277zM31.662 22.222a.98.98 0 01-.41.402 1.34 1.34 0 01-.637.144h-.807v-2.277h.807c.221-.006.439.042.637.14a.969.969 0 01.41.397 1.331 1.331 0 010 1.194zm-.518-.055a.837.837 0 000-1.086.785.785 0 00-.567-.194h-.315v1.474h.315a.785.785 0 00.567-.194zM26.236 7.822s5.849 2.217 5.725 5.426v5.427s-5.845-2.218-5.723-5.427l-.002-5.426zM37.173 17.404a8.002 8.002 0 013.716-1.375V14.33a7.629 7.629 0 00-3.716 3.074z"/><path  d="M36.509 17.916a7.959 7.959 0 014.38-3.942V9.079s-8.33 3.158-8.154 7.728v7.726s.371-.141.955-.406c0-.247 0-.496.027-.747a8.04 8.04 0 012.792-5.465z"/><path  d="M35.717 20.786a8.016 8.016 0 01.291-1.582 7.481 7.481 0 00-1.764 4.667 24.023 24.023 0 001.602-.848 7.996 7.996 0 01-.129-2.237zM36.048 20.814a7.687 7.687 0 00.103 2.026c2.276-1.367 4.833-3.48 4.735-6.033v-.222a7.455 7.455 0 00-4.33 2.031 7.652 7.652 0 00-.508 2.198z"/></symbol><symbol id="icon-Client_6" viewBox="0 0 60 32"><path  d="M30.485 15.415a1.155 1.155 0 01-.203-.731v-1.06c0-.325.067-.572.202-.741s.365-.253.693-.252c.308 0 .526.072.655.216a.938.938 0 01.194.634v.249h-.55v-.252a1.361 1.361 0 00-.016-.247.246.246 0 00-.079-.147.294.294 0 00-.199-.057.32.32 0 00-.21.06.285.285 0 00-.091.162 1.357 1.357 0 00-.022.262v1.287a.707.707 0 00.071.361c.027.038.065.069.11.088s.094.026.142.02c.07.005.14-.015.195-.058a.262.262 0 00.082-.156c.013-.085.019-.172.017-.258v-.261h.55v.238a1.04 1.04 0 01-.19.667c-.127.157-.342.236-.659.236s-.556-.084-.692-.259zM32.777 15.425c-.139-.165-.209-.406-.209-.724v-1.115c0-.315.069-.553.209-.715s.371-.242.697-.242c.324 0 .555.081.694.242s.21.4.21.715v1.116c0 .315-.071.557-.212.723s-.371.249-.692.249-.557-.084-.697-.248zm.954-.267a.674.674 0 00.066-.33v-1.366a.664.664 0 00-.065-.324c-.028-.039-.067-.07-.112-.089s-.096-.026-.145-.019c-.049-.007-.1 0-.146.019s-.085.05-.113.089a.639.639 0 00-.066.324v1.372a.661.661 0 00.066.33.34.34 0 00.257.111.36.36 0 00.257-.111v-.006zM35.04 12.662h.593l.446 2.058.456-2.058h.577l.058 2.971h-.426l-.045-2.065-.44 2.065h-.342l-.456-2.072-.042 2.072h-.431l.054-2.971zM37.833 12.662h.923c.532 0 .797.281.797.844 0 .539-.28.808-.84.807h-.314v1.32h-.57l.004-2.971zm.789 1.269a.41.41 0 00.313-.093.518.518 0 00.082-.335 1.024 1.024 0 00-.027-.27.231.231 0 00-.114-.142.538.538 0 00-.254-.047h-.221v.888h.221zM40.375 12.662h.612l.628 2.971h-.531l-.124-.685h-.546l-.128.685h-.539l.628-2.971zm.523 1.941l-.213-1.247-.213 1.247h.426zM42.122 12.662h.399l.763 1.695v-1.695h.473v2.971h-.379l-.768-1.769v1.769h-.489l.001-2.971zM44.865 14.5l-.635-1.834h.535l.387 1.178.364-1.178h.523l-.627 1.834v1.133h-.547V14.5zM31.365 16.931v.155H30.9v1.207h-.195v-1.207h-.467v-.155h1.127zM32.823 18.294h-.15a.064.064 0 01-.042-.013.075.075 0 01-.025-.031l-.134-.324h-.645l-.134.324a.102.102 0 01-.02.037.064.064 0 01-.042.013h-.15l.57-1.362h.198l.577 1.357zm-.944-.506h.538l-.228-.555a1.007 1.007 0 01-.042-.128l-.022.072-.02.057-.226.553zM33.805 18.16a.56.56 0 00.198-.016.596.596 0 00.082-.025l.076-.033v-.306h-.228c-.006 0-.011 0-.017-.002s-.01-.005-.014-.008-.007-.007-.009-.011-.003-.009-.003-.014v-.105h.442v.522c-.036.024-.074.046-.114.065s-.083.035-.126.046a.99.99 0 01-.142.028 1.539 1.539 0 01-.166.009.78.78 0 01-.287-.051.69.69 0 01-.228-.142.663.663 0 01-.199-.499.773.773 0 01.051-.285.633.633 0 01.375-.357.88.88 0 01.305-.051c.053 0 .106.004.158.012a.715.715 0 01.349.16l-.055.084c-.004.008-.011.014-.019.019s-.017.007-.026.007a.06.06 0 01-.035-.011.928.928 0 01-.056-.032.533.533 0 00-.181-.067.878.878 0 00-.145-.012.61.61 0 00-.22.038.467.467 0 00-.273.277.693.693 0 000 .454.502.502 0 00.28.28.574.574 0 00.226.027zM35.621 18.138h.622v.155h-.812V16.93h.195l-.005 1.207zM36.891 18.294h-.195v-1.363h.195v1.363zM37.616 16.938a.088.088 0 01.029.025l.833 1.027a.4.4 0 010-.049v-1.015h.17v1.368h-.098a.085.085 0 01-.042-.008.13.13 0 01-.031-.026l-.832-1.026v1.059h-.163V16.93h.101c.011 0 .022.002.032.006zM40.083 16.931v.15h-.691v.45h.56v.145h-.56v.465h.691v.15h-.891v-1.359h.891zM19.663 8.517l8.652 2.326v8.15l-8.652-2.325V8.517zm-.555-.695v9.242l9.761 2.625v-9.241l-9.761-2.626z"/><path  d="M24.34 23.979l-9.762-2.627v-9.241l9.762 2.626v9.242z"/><path  d="M19.27 8.412l8.54 2.297-3.632 3.439-8.541-2.298 3.633-3.438zm-.162-.59l-4.531 4.289 9.762 2.626 4.53-4.289-9.761-2.626zM24.889 23.459l3.98-3.769-3.98-1.071v4.84z"/></symbol><symbol id="icon-mobile-close" viewBox="0 0 32 32"><path d="M23.7 10.3l-1.5-1.5-6 6-5.9-6-1.5 1.5 6 6-6 6 1.5 1.4 6-6 6 6 1.4-1.5-6-6 6-5.9z"/></symbol><symbol id="icon-mobile-menu" viewBox="0 0 32 32"><path d="M6.4 11.7V9.6h19.2v2.1H6.4zm0 5.4h19.2v-2.2H6.4v2.2zm0 5.3h19.2v-2.1H6.4v2.1z"/></symbol></defs></svg>